# xmcd
#
# Track frame offsets:
#	150
#	13047
#	23217
#	33263
#	43561
#	53881
#	65813
#	77691
#	90043
#	101466
#	111224
#	122249
#	131640
#	141967
#	153554
#	164477
#	174543
#	185952
#	194648
#	205373
#	214726
#	224484
#	234643
#	245580
#	255295
#	266291
#	277629
#	288352
#	301272
#	312623
#	322044
#	331892
#	342546
#
# Disc length: 4716 seconds
#
# Revision: 1
# Processed by: cddbd v1.5.2PL0 Copyright (c) Steve Scherf et al.
# Submitted via: audiograbber 1.83.01
#
DISCID=f1126a21
DTITLE=George Jones - Birth Of A Legend CD3
DYEAR=2016
DGENRE=Country
TTITLE0=You're Back Again
TTITLE1=Don't Stop The Music
TTITLE2=(That's) All I Want To Do
TTITLE3=Uh, Uh, No
TTITLE4=Uh, Uh, No (alt)
TTITLE5=Cup Of Loneliness
TTITLE6=Cup Of Loneliness (alt)
TTITLE7=Please Take The Devil Out Of Me
TTITLE8=Giveaway Girl
TTITLE9=Too Much Water
TTITLE10=Flame In My Heart
TTITLE11=No, No, Never
TTITLE12=Don't Do This To Me
TTITLE13=Hearts In My Dreams
TTITLE14=Tall Tall Trees
TTITLE15=No Use To Cry
TTITLE16=One Is A Lonely Number
TTITLE17=That's The Way I Feel
TTITLE18=Frozen Heart
TTITLE19=Never Been So Weary
TTITLE20=Maybe Next Christmas
TTITLE21=New Baby For Christmas
TTITLE22=Wandering Soul
TTITLE23=If You Want To Wear A Crown
TTITLE24=(I) Gotta Talk To Your Heart
TTITLE25=Nothing Can Stop Me
TTITLE26=I Always Wind Up Losing
TTITLE27=Color Of The Blues
TTITLE28=Eskimo Pie
TTITLE29=Maybe Little Baby
TTITLE30=Rain Rain (Rain Keeps Fallin')
TTITLE31=(I Believe) The Good Old Bible
TTITLE32=We'll Understand It (Farther Along)
EXTD=
EXTT0=
EXTT1=
EXTT2=
EXTT3=
EXTT4=
EXTT5=
EXTT6=
EXTT7=
EXTT8=
EXTT9=
EXTT10=
EXTT11=
EXTT12=
EXTT13=
EXTT14=
EXTT15=
EXTT16=
EXTT17=
EXTT18=
EXTT19=
EXTT20=
EXTT21=
EXTT22=
EXTT23=
EXTT24=
EXTT25=
EXTT26=
EXTT27=
EXTT28=
EXTT29=
EXTT30=
EXTT31=
EXTT32=
PLAYORDER=
